<?xml version="1.0" encoding="UTF-8"?>
<svg xmlns="http://www.w3.org/2000/svg" xmlns:xlink="http://www.w3.org/1999/xlink" viewBox="0 0 50 50" width="50px" height="50px">
<g id="surface9080084">
<path style=" stroke:none;fill-rule:nonzero;fill:rgb(100%,100%,100%);fill-opacity:1;" d="M 25 45 C 13.953125 45 5 36.046875 5 25 C 5 13.953125 13.953125 5 25 5 C 36.046875 5 45 13.953125 45 25 C 45 36.046875 36.046875 45 25 45 Z M 25 45 "/>
<path style=" stroke:none;fill-rule:nonzero;fill:rgb(100%,100%,100%);fill-opacity:1;" d="M 25 6.601562 C 14.855469 6.601562 6.601562 14.855469 6.601562 25 C 6.601562 35.144531 14.855469 43.398438 25 43.398438 C 35.144531 43.398438 43.398438 35.144531 43.398438 25 C 43.398438 14.855469 35.144531 6.601562 25 6.601562 Z M 33.988281 21.417969 C 33.996094 21.609375 34.003906 21.800781 34.003906 21.992188 C 34.003906 27.847656 29.542969 34.601562 21.394531 34.601562 C 18.890625 34.601562 16.558594 33.867188 14.601562 32.609375 C 14.945312 32.652344 15.296875 32.671875 15.65625 32.671875 C 17.734375 32.671875 19.644531 31.964844 21.160156 30.773438 C 19.222656 30.738281 17.585938 29.457031 17.019531 27.695312 C 17.292969 27.75 17.570312 27.777344 17.855469 27.777344 C 18.257812 27.777344 18.652344 27.722656 19.023438 27.621094 C 16.996094 27.210938 15.46875 25.421875 15.46875 23.273438 C 15.46875 23.257812 15.46875 23.238281 15.46875 23.21875 C 16.066406 23.550781 16.75 23.75 17.476562 23.773438 C 16.285156 22.976562 15.503906 21.625 15.503906 20.085938 C 15.503906 19.273438 15.722656 18.511719 16.105469 17.855469 C 18.289062 20.539062 21.554688 22.300781 25.238281 22.488281 C 25.164062 22.164062 25.121094 21.824219 25.121094 21.476562 C 25.121094 19.03125 27.105469 17.046875 29.554688 17.046875 C 30.828125 17.046875 31.980469 17.585938 32.789062 18.445312 C 33.796875 18.246094 34.746094 17.878906 35.601562 17.371094 C 35.273438 18.40625 34.570312 19.273438 33.652344 19.824219 C 34.550781 19.714844 35.402344 19.476562 36.199219 19.125 C 35.605469 20.011719 34.855469 20.792969 33.988281 21.417969 Z M 33.988281 21.417969 "/>
</g>
</svg>
